# xmcd CD database file
#
# Track frame offsets:
#	150
#	13772
#	36782
#	51727
#	66357
#	83045
#	100597
#	116635
#	140272
#	156152
#
# Disc length: 2316 seconds
#
# Revision: 2
# Processed by: cddbd v1.5.2PL0 Copyright (c) Steve Scherf et al.
# Submitted via: CDex 1.51
#
DISCID=84090a0a
DTITLE=Astrud Gilberto - Gilberto With Turrentine
DYEAR=1971
DGENRE=Jazz
TTITLE0=Wanting Things
TTITLE1=Brazilian Tapestry
TTITLE2=To A Flame (Instrumental)
TTITLE3=Solo el fin (For All We Know)
TTITLE4=Zazueira
TTITLE5=Ponteio
TTITLE6=Traveling Light
TTITLE7=Vera Cruz (Instrumental)
TTITLE8=Historia de amor (Love Story)
TTITLE9=Where There's A Heartache (There Must Be A Heart)
EXTD=YEAR: 1971
EXTT0=
EXTT1=
EXTT2=
EXTT3=
EXTT4=
EXTT5=
EXTT6=
EXTT7=
EXTT8=
EXTT9=
PLAYORDER=
